<?xml version="1.0" standalone="no"?>
<!DOCTYPE svg PUBLIC "-//W3C//DTD SVG 1.1//EN" "http://www.w3.org/Graphics/SVG/1.1/DTD/svg11.dtd" >
<svg xmlns="http://www.w3.org/2000/svg">
<metadata>
Created by FontForge 20120731 at Wed May  4 09:36:38 2016
 By admin
</metadata>
<defs>
<font id="iconfont" horiz-adv-x="1024" >
  <font-face 
    font-family="iconfont"
    font-weight="500"
    font-stretch="normal"
    units-per-em="1024"
    panose-1="2 0 6 3 0 0 0 0 0 0"
    ascent="896"
    descent="-128"
    x-height="792"
    bbox="-0.320612 -216 1243 896"
    underline-thickness="50"
    underline-position="-100"
    unicode-range="U+0078-E63B"
  />
<missing-glyph horiz-adv-x="374" 
d="M34 0v682h272v-682h-272zM68 34h204v614h-204v-614z" />
    <glyph glyph-name=".notdef" horiz-adv-x="374" 
d="M34 0v682h272v-682h-272zM68 34h204v614h-204v-614z" />
    <glyph glyph-name=".null" horiz-adv-x="0" 
 />
    <glyph glyph-name="nonmarkingreturn" horiz-adv-x="341" 
 />
    <glyph glyph-name="x" unicode="x" horiz-adv-x="1001" 
d="M281 543q-27 -1 -53 -1h-83q-18 0 -36.5 -6t-32.5 -18.5t-23 -32t-9 -45.5v-76h912v41q0 16 -0.5 30t-0.5 18q0 13 -5 29t-17 29.5t-31.5 22.5t-49.5 9h-133v-97h-438v97zM955 310v-52q0 -23 0.5 -52t0.5 -58t-10.5 -47.5t-26 -30t-33 -16t-31.5 -4.5q-14 -1 -29.5 -0.5
t-29.5 0.5h-32l-45 128h-439l-44 -128h-29h-34q-20 0 -45 1q-25 0 -41 9.5t-25.5 23t-13.5 29.5t-4 30v167h911zM163 247q-12 0 -21 -8.5t-9 -21.5t9 -21.5t21 -8.5q13 0 22 8.5t9 21.5t-9 21.5t-22 8.5zM316 123q-8 -26 -14 -48q-5 -19 -10.5 -37t-7.5 -25t-3 -15t1 -14.5
t9.5 -10.5t21.5 -4h37h67h81h80h64h36q23 0 34 12t2 38q-5 13 -9.5 30.5t-9.5 34.5q-5 19 -11 39h-368zM336 498v228q0 11 2.5 23t10 21.5t20.5 15.5t34 6h188q31 0 51.5 -14.5t20.5 -52.5v-227h-327z" />
    <glyph glyph-name="uniE600" unicode="&#xe600;" 
d="M455.5 7q-95.5 0 -177 47.5t-129 129t-47.5 177t47.5 177t129 129t177 47.5t177 -47.5t129 -129t47.5 -177t-47.5 -177t-129 -129t-177 -47.5zM455.5 627q-110.5 0 -188.5 -78t-78 -188.5t78 -188.5t188.5 -78t188.5 78t78 188.5t-78 188.5t-188.5 78zM868 -106
q-22 0 -38 16l-184 184q-16 16 -16 38t15.5 38t38 16t38.5 -16l184 -185q16 -15 16 -37.5t-16 -38t-38 -15.5z" />
    <glyph glyph-name="uniE601" unicode="&#xe601;" 
d="M920 590h-679l-12 97q-1 12 -10.5 20t-21.5 8h-7q-4 0 -7 -1h-83q-15 0 -25 -9t-10 -22.5t10 -22.5t25 -9h69l67 -548q1 -12 10.5 -20.5t21.5 -8.5h7q4 0 7 1h549q15 0 25 9.5t10 22.5t-10 22.5t-25 9.5h-535l-8 67h545q12 0 22.5 8t12.5 20l74 327q3 12 -3.5 20.5
t-18.5 8.5zM295 -66q0 -32 22.5 -54.5t54.5 -22.5t55 22.5t23 54.5t-23 55t-55 23t-54.5 -23t-22.5 -55zM679 -66q0 -32 22.5 -54.5t54.5 -22.5t55 22.5t23 54.5t-23 55t-55 23t-54.5 -23t-22.5 -55z" />
    <glyph glyph-name="uniE602" unicode="&#xe602;" 
d="M672 447h-96l38 39q20 19 0.5 38t-38.5 0l-64 -70l-70 70q-20 19 -39 0t0 -38l45 -39h-90q-27 0 -45.5 -19.5t-18.5 -44.5q0 -24 14 -41.5t38 -22.5v-211q0 -10 8 -18t17 -8h301q10 0 18 8t8 18v205q20 5 35.5 23t15.5 41q-5 29 -27 49.5t-50 20.5zM358 364q-19 0 -19 13
q0 6 5.5 12.5t13.5 6.5h135v-32h-135zM640 127h-250v186h103v-109q0 -10 8 -18t17.5 -8t17.5 8t8 18v109h96v-186zM672 364h-128v32h134q6 0 13 -5.5t7 -13.5q-13 -13 -26 -13zM512 812q-138 0 -256 -69t-187 -187t-69 -256t69 -256t187 -187t256 -69t256 69t187 187t69 256
t-69 256t-187 187t-256 69zM506 -174q-97 0 -185 37.5t-151 101t-100.5 151t-37.5 184.5t37.5 184.5t100.5 151t151 101t184.5 37.5t184.5 -37.5t151 -101t100.5 -151t37.5 -184.5t-37.5 -184.5t-100.5 -151t-151 -101t-184 -37.5zM506 -174z" />
    <glyph glyph-name="uniE603" unicode="&#xe603;" 
d="M268 469q0 99 71.5 168.5t172.5 69.5t172.5 -69.5t71.5 -168.5t-71.5 -169t-172.5 -70t-172.5 70t-71.5 169zM225 469q0 -84 46 -153t121 -103q-125 -35 -210 -134t-98 -229h43q16 143 126 240.5t259 97.5t259 -97.5t126 -240.5h43q-13 130 -98 229t-210 134
q75 34 121 103t46 153q0 116 -84 198.5t-203 82.5t-203 -82.5t-84 -198.5z" />
    <glyph glyph-name="uniE604" unicode="&#xe604;" 
d="M644 -105q-25 0 -41 18q-16 17 -42.5 35t-48.5 18q-23 0 -49.5 -18t-41.5 -34q-16 -18 -41 -18q-11 0 -21 5h-1l-107 60l-1 1q-14 10 -19 27.5t2 33.5q10 23 10 43q0 47 -33 80t-80 33h-4q-14 0 -24 11t-13 30q-10 48 -10 85t10 85q3 19 13.5 30t23.5 10h4q47 0 80 33.5
t33 79.5q0 21 -10 44q-7 16 -2 33.5t19 27.5l2 1l112 62h1q10 4 21 4q25 0 41 -16q15 -17 41 -34t48 -17t47.5 17t41.5 33t40 16q12 0 21 -4l2 -1l108 -60l1 -1q15 -10 20 -27.5t-2 -33.5q-10 -23 -10 -44q0 -46 33 -79.5t80 -33.5h3q14 1 24.5 -10t13.5 -30q9 -48 9 -85
t-9 -85q-3 -19 -13.5 -30t-24.5 -11h-3q-47 0 -80 -33t-33 -80q0 -20 10 -43q7 -16 2 -33.5t-20 -27.5l-1 -1l-110 -61l-1 -1q-10 -4 -21 -4zM641 -53q1 -1 3 -1l103 57q-13 33 -13 63q0 66 45 113.5t110 50.5q8 45 8 75t-8 75q-65 3 -110 50.5t-45 112.5q0 31 13 64
l-101 56h-1q-2 0 -3 -1q-16 -16 -38 -32q-47 -33 -88 -33t-89 34q-22 16 -37 32q-2 1 -4 1h-1l-105 -57q14 -33 14 -64q0 -65 -45 -112.5t-110 -50.5q-8 -45 -8 -75t8 -75q65 -3 110 -50.5t45 -113.5q0 -30 -14 -63l100 -55h3q16 18 38 34q49 35 91 35t90 -36q23 -16 39 -34
zM512 155q-62 0 -106 44t-44 106.5t44 106.5t106 44t106 -44t44 -106.5t-44 -106.5t-106 -44zM512 405q-41 0 -70 -29t-29 -70.5t29 -70.5t70 -29t70 29t29 70.5t-29 70.5t-70 29z" />
    <glyph glyph-name="uniE605" unicode="&#xe605;" 
d="M845 568l-271 163q-29 17 -62 17t-62 -17l-271 -163q-28 -16 -43.5 -43.5t-15.5 -58.5v-332q0 -31 15.5 -58.5t43.5 -44.5l271 -162q29 -17 62 -17t62 17l274 164q8 4 10 12.5t-2.5 16.5t-13 10t-16.5 -3l-274 -163q-40 -24 -80 -1l-271 163q-39 23 -39 66v332
q0 43 39 66l271 162q40 24 80 0l271 -162q39 -23 39 -66v-279q0 -8 6 -14.5t15 -6.5t15 6.5t6 14.5v279q0 31 -15.5 58.5t-43.5 43.5zM398 49q-3 -14 6 -25q10 -12 25 -12q16 0 25 13l267 290l3 4q9 15 0 31q-8 14 -24 16l-165 41l55 143l1 4q0 14 -9 23q-10 10 -24.5 9
t-23.5 -11l-231 -226l-4 -4q-9 -16 -1 -32q9 -15 25 -16l151 -30l-76 -214v-4zM519 266l1 3q2 15 -7 26q-8 10 -21 12l-142 28l179 175l-41 -106l-1 -4q0 -13 9 -23q8 -8 19 -9l160 -40l-218 -236z" />
    <glyph glyph-name="uniE606" unicode="&#xe606;" 
d="M904 -7h-546h-28h-210q-23 0 -39.5 16t-16.5 40v56v56v55q35 0 59.5 25t24.5 59.5t-24.5 59t-59.5 24.5v56v56v56q0 24 16.5 40t39.5 16h210h28h546q23 0 39.5 -16t16.5 -40v-84v-28v-56q-35 0 -59.5 -24.5t-24.5 -59t24.5 -59.5t59.5 -25v-55v-84v-28q0 -24 -16.5 -40
t-39.5 -16zM904 172q-38 17 -61 51.5t-23 77t23 77t61 51.5v95q0 12 -8.5 20t-19.5 8h-504v-42q0 -5 -4 -9.5t-10 -4.5h-28q-6 0 -10 4.5t-4 9.5v42h-168q-12 0 -20 -8t-8 -20v-95q38 -17 61 -51.5t23 -77t-23 -77t-61 -51.5v-95q0 -12 8.5 -20t19.5 -8h168v42q0 5 4 9.5
t10 4.5h28q6 0 10 -4.5t4 -9.5v-42h504q11 0 19.5 8t8.5 20v95zM358 161h-28q-6 0 -10 4t-4 9v84q0 6 4 10t10 4h28q6 0 10 -4t4 -10v-84q0 -5 -4 -9t-10 -4zM358 328h-28q-6 0 -10 4.5t-4 9.5v84q0 6 4 10t10 4h28q6 0 10 -4t4 -10v-84q0 -5 -4 -9.5t-10 -4.5z" />
    <glyph glyph-name="uniE607" unicode="&#xe607;" horiz-adv-x="1025" 
d="M720 -126h-666q-25 0 -39.5 16t-14.5 38v97q0 52 48 72q82 36 202 72v11q0 31 -7 46q-16 33 -22 71q-21 27 -31 78q-9 44 2 71q4 22 -7 82q-4 24 3.5 60t33.5 69q50 63 142 69h41q95 -6 144 -69q26 -33 33.5 -69t3.5 -60q-11 -58 -7 -81q11 -28 3 -72q-11 -51 -32 -78
q-6 -38 -21 -71q-14 -28 -14 -46v-10q124 -37 204 -70q26 -12 40.5 -33t14.5 -42v-97q0 -22 -14.5 -38t-39.5 -16zM404 694h-39q-77 -5 -118 -57q-19 -25 -26.5 -54.5t-3.5 -48.5q4 -25 6.5 -54.5t0.5 -38.5q-1 -3 -3 -7q-7 -18 0 -53q10 -46 27 -67q4 -3 4 -8q5 -35 20 -66
q10 -22 10 -60q0 -14 -1 -19.5t-4.5 -11.5t-11.5 -9q-120 -35 -205 -72q-28 -12 -28 -43v-97q0 -22 22 -22h666q22 0 22 22v97q0 12 -9 25t-27 20q-83 35 -205 71q-12 4 -15 12t-3 27q0 25 17 60q15 31 19 66q1 5 4 8q18 21 27 67q7 35 0 53q-2 4 -2 5q-6 27 7 95
q3 19 -4 48.5t-27 54.5q-41 52 -120 57zM681 354h343v-32h-343v32zM837 510h32v-343h-32v343z" />
    <glyph glyph-name="uniE608" unicode="&#xe608;" 
d="M902 -73q-10 -9 -23 -9h-98q-13 0 -22.5 9.5t-9.5 22.5v130q0 13 9.5 23t23 10t23 -10t9.5 -23v-97h65q13 0 22.5 -9.5t9.5 -23t-9 -23.5zM957 34q-14 32 -38.5 56.5t-57 38.5t-68.5 14q-38 0 -70.5 -14t-56.5 -38.5t-38.5 -57t-14.5 -68.5q0 -37 14.5 -69.5t38.5 -57
t56.5 -38.5t70.5 -14q36 0 68.5 14t57 38.5t38.5 57t14 69.5q0 36 -14 69zM192 -99q-27 0 -46.5 19.5t-19.5 46.5v684q0 27 19.5 46t46.5 19h558q27 0 46 -19t19 -46v-455q39 -4 73 -21v483q0 54 -38.5 92.5t-92.5 38.5h-573q-54 0 -92.5 -38.5t-38.5 -92.5v-699
q0 -54 38.5 -92.5t92.5 -38.5h425q-26 33 -39 73h-378zM623 626h71l-166 -285h132v-57h-161v-92h161v-54h-160v-136h-67v136h-166v54h166v92h-166v57h142l-167 285h73q33 -59 69 -120.5t57 -97t28 -51.5z" />
    <glyph glyph-name="uniE609" unicode="&#xe609;" 
d="M972 405l-440 381l-20 7l-20 -7l-279 -242v160h-60v-212l-101 -87h-19v-598h958v598h-19zM691 -133h-119v328h119v-328zM931 -133h-180v388h-239v-388h-419v494l120 103v1l299 259l419 -363v-494zM213 76h179v179h-179v-179zM273 195h60v-59h-60v59z" />
    <glyph glyph-name="uniE60A" unicode="&#xe60a;" 
d="M513.5 746q-90.5 0 -173.5 -35.5t-142.5 -95.5t-95 -143t-35.5 -173.5t35.5 -173t95 -142.5t142.5 -95.5t173.5 -35.5t173.5 35.5t142.5 95.5t95 142.5t35.5 173t-35.5 173.5t-95 143t-142.5 95.5t-173.5 35.5zM513.5 -101q-108.5 0 -200.5 53.5t-145.5 145.5
t-53.5 200.5t53.5 200.5t145.5 145.5t200.5 53.5t200.5 -53.5t145.5 -145.5t53.5 -200.5t-53.5 -200.5t-145.5 -145.5t-200.5 -53.5z" />
    <glyph glyph-name="uniE60B" unicode="&#xe60b;" 
d="M510.5 741q-89.5 0 -171 -35t-140.5 -94t-94 -140.5t-35 -171t35 -171t94 -140.5t140.5 -94t171 -35t171 35t140.5 94t93.5 140.5t34.5 171t-34.5 171t-93.5 140.5t-140.5 94t-171 35zM510.5 -91q-106.5 0 -196.5 52.5t-142.5 142.5t-52.5 196.5t52.5 196.5t142.5 142.5
t196.5 52.5t196.5 -52.5t142.5 -142.5t52.5 -196.5t-52.5 -196.5t-142.5 -142.5t-196.5 -52.5zM700 89q0 -16 -6 -29t-16.5 -23t-25 -16t-31.5 -6h-217q-17 0 -31.5 6t-25 16t-16.5 23t-6 29v423q0 16 6 29.5t16.5 23.5t25 15.5t31.5 5.5h217q17 0 31.5 -5.5t25 -15.5
t16.5 -23.5t6 -29.5v-423zM651 483h-277v-364h277v364zM512 101q-13 0 -22.5 -9t-9.5 -22t9.5 -22.5t22.5 -9.5q14 0 23 9.5t9 22.5t-9 22t-23 9zM561 535q0 5 -3 7.5t-7 2.5h-77q-3 0 -6.5 -2.5t-3.5 -7.5t3 -8t7 -3h77q4 0 7 3t3 8zM561 535z" />
    <glyph glyph-name="uniE60C" unicode="&#xe60c;" 
d="M900 88q-29 89 -90 150q-51 52 -123 82q-66 28 -136 33v48v4q61 11 101.5 59t40.5 111q0 71 -50.5 121.5t-122 50.5t-122 -50.5t-50.5 -121.5q0 -63 40.5 -111t101.5 -59q-1 -2 -1 -4v-48q-70 -5 -137 -33q-71 -30 -123 -82q-60 -61 -89 -150q-43 -9 -71.5 -44t-28.5 -80
q0 -52 37 -89t89 -37t89.5 37t37.5 89q0 42 -25 75.5t-64 45.5q47 125 170 178q56 24 115 29v-205q-41 -10 -68 -44.5t-27 -78.5q0 -52 37 -89t89 -37t89 37t37 89q0 44 -27 78.5t-68 44.5v205q58 -5 113 -28q124 -53 172 -179q-39 -13 -63 -46t-24 -75q0 -52 37 -89t89 -37
t89 37t37 89q0 46 -28.5 81t-72.5 43zM231 -36q0 -27 -19 -46t-46 -19t-46 19t-19 46t19 46t46 19t46 -19t19 -46zM410 575q0 46 32.5 78.5t78.5 32.5t78.5 -32.5t32.5 -78.5t-32.5 -78.5t-78.5 -32.5t-78.5 32.5t-32.5 78.5zM585 -36q0 -27 -19 -46t-46 -19t-46 19t-19 46
t19 46t46 19t46 -19t19 -46zM875 -101q-27 0 -46 19t-19 46t19 46t46 19t46 -19t19 -46t-19 -46t-46 -19z" />
    <glyph glyph-name="uniE60D" unicode="&#xe60d;" horiz-adv-x="1030" 
d="M1021 428q-8 7 -18.5 6t-16.5 -9l-43 -54q-2 32 -8 62q-27 127 -111 221t-203 134t-245 14t-219.5 -111t-133 -205t-13.5 -246.5t110 -220.5t203.5 -134t245.5 -14q135 29 235 129v1q1 0 1.5 1.5t1.5 1.5q3 5 3 11q0 8 -6 14t-14 6q-9 0 -16 -7q-90 -90 -213 -116
q-114 -24 -222 12.5t-184 121.5t-100 199.5t12 223.5t121 185.5t198.5 100.5t221.5 -12.5t184 -121.5t100 -200q6 -27 8 -53l-52 41q-8 7 -18 6t-16.5 -9t-5.5 -18.5t9 -17.5l95 -77q8 -6 19 -5q10 1 17 9l76 96q7 8 6 18.5t-9 16.5zM631 311v1q9 0 15.5 6t6.5 15t-6.5 15.5
t-15.5 6.5h-129v39l128 126v1q7 5 7.5 14t-5.5 16t-15 7.5t-16 -5.5l-120 -119l-128 125q-6 5 -15 4.5t-15 -7t-5.5 -15.5t7.5 -15l133 -131v-40h-129q-9 0 -15.5 -6.5t-6.5 -15.5t6.5 -15.5t15.5 -6.5h129v-66h-129q-9 0 -15.5 -6.5t-6.5 -15.5t6.5 -15.5t15.5 -6.5h129
v-128h1q0 -9 6 -15t15 -6t15.5 6t6.5 15v128h129v1q9 0 15.5 6t6.5 15t-6.5 15.5t-15.5 6.5h-129v66h129zM631 311z" />
    <glyph glyph-name="uniE60E" unicode="&#xe60e;" 
d="M109 660h70h59q18 0 30.5 12.5t12.5 30t-12.5 30.5t-30.5 13h-70h-59q-17 0 -30 -13t-13 -30.5t13 -30t30 -12.5zM197 691q5 -21 6 -25q3 -12 8 -34.5t8 -33.5q15 -63 22 -95q4 -17 12.5 -53.5t12.5 -53.5l1 -1v-1v-1v-1l1 -1v-1v-1v-1l1 -1v-1v-1v-1l1 -1v-1v-1v-1v-1
l1 -1v-1v-1v-1l1 -1v-1v-1v-1l1 -1v-1v-1v-1l1 -1v-1v-1v-1l1 -1v-1v-1v-1v-1l1 -1v-1v-1v-1l1 -1v-1v-1v-1l1 -1v-1v-1v-1l1 -1v-1v-1v-1v-1l1 -1v-1v-1v-1l1 -1v-1v-1v-1l1 -1v-1v-1v-1l1 -1v-1v-1v-1v-1l1 -1v-1v-1v-1l1 -1v-1v-1v-1l1 -1v-1v-1v-1l1 -1v-1v-1v-1l1 -1
v-1v-1v-1v-1l1 -1v-1v-1v-1l1 -1v-1v-1v-1l1 -1v-1v-1v-1q11 -44 21 -88q7 -29 14 -57q0 -2 1 -6.5t2 -6.5q4 -17 20 -26t32.5 -4.5t25.5 19.5t5 33q-2 6 -4 13.5t-2 12.5q-3 11 -8.5 33.5t-7.5 34.5q-12 47 -23 94q-4 17 -12.5 53t-12.5 55l-25 105q-10 44 -21 88l-13 57
l-3 13q-4 17 -20.5 26t-33 4.5t-25.5 -20.5q-9 -14 -4 -33zM370 101h26h68h93h102h94h70h29q18 0 30.5 12.5t12.5 30.5t-12.5 30.5t-30.5 12.5h-26h-68h-93h-101h-94h-70h-30q-17 0 -30 -12.5t-13 -30.5t13 -30.5t30 -12.5zM269 527h31h82h114h127h123h100h59h9
q17 0 30 12.5t13 30t-13 30.5t-30 13h-32h-82h-113h-128h-123h-100h-59h-8q-18 0 -30.5 -13t-12.5 -30.5t12.5 -30t30.5 -12.5zM326 298h27h68h97h107h104h85h50h7q17 0 30 12.5t13 30t-13 30t-30 12.5h-27h-69h-96h-108h-103h-85h-50h-7q-17 0 -30 -12.5t-13 -30t13 -30
t30 -12.5zM872 581q-4 -24 -9 -47q-10 -53 -18 -96q-7 -38 -14 -77q-1 -4 -2 -9l-1 -6v-6q0 -11 5 -21q9 -15 26 -20q18 -5 33 4q17 10 20 26q4 24 9 47q10 52 18 97l14 76q1 5 2 9l2 12q-1 11 -6 21q-9 16 -26 20q-18 5 -33 -4q-17 -10 -20 -26zM454 -151q-45 0 -77.5 32
t-32.5 77.5t32.5 77.5t77.5 32t77.5 -32t32.5 -77.5t-32.5 -77.5t-77.5 -32zM454 -18q-10 0 -17 -7t-7 -17t7 -16.5t17 -6.5t17 6.5t7 16.5t-7 17t-17 7zM781.5 -151q-45.5 0 -77.5 32t-32 77.5t32 77.5t77.5 32t77.5 -32t32 -77.5t-32 -77.5t-77.5 -32zM781.5 -18
q-9.5 0 -16.5 -7t-7 -17t7 -16.5t16.5 -6.5t16.5 6.5t7 16.5t-7 17t-16.5 7z" />
    <glyph glyph-name="uniE60F" unicode="&#xe60f;" 
d="M512 748q-91 0 -173.5 -35.5t-142.5 -95.5t-95 -142.5t-35 -173.5t35 -174t95 -142.5t142.5 -95t173.5 -35.5t174 35.5t142.5 95t95 142.5t35.5 174t-35.5 173.5t-95 142.5t-142.5 95.5t-174 35.5zM512 -80q-103 0 -191 51t-139 138.5t-51 191t51 191.5t139 139t191.5 51
t191 -51t138.5 -139t51 -191.5t-51 -191t-138.5 -138.5t-191.5 -51zM502 478zM489 260h32v20h150v-20h32v220h-214v-220zM319 178q33 46 55 109v-188h32v188q25 -27 47 -54l25 21q-30 32 -55 58l-17 -16v60h63v29h-63v70q35 3 61 6l-8 32q-64 -9 -150 -14q4 -16 6 -31
q32 2 59 4v-67h-67v-29h63q-26 -83 -65 -142q8 -18 14 -36zM671 309h-150v142h150v-142zM445 128q14 -12 24 -23q45 47 93 108l-28 20q-37 -53 -89 -105zM699 109l30 22q-42 55 -81 99l-26 -18q40 -48 77 -103z" />
    <glyph glyph-name="uniE610" unicode="&#xe610;" 
d="M262 -99q-29 0 -50 21l-70 70q-16 16 -23 34.5t-4.5 41.5t7 38t14.5 42l3 8q12 21 32.5 53t78 108t113.5 132q59 59 134.5 116t106.5 76t50 30q53 27 91 27q43 0 73 -31l70 -70q25 -24 22 -58q-2 -27 -25 -43l-139 -104q-25 -17 -50 -17q-27 0 -46 19l-29 29
q-78 -59 -135 -117q-50 -50 -100 -115l30 -31q19 -18 19.5 -44t-17.5 -51l-107 -143q-20 -21 -49 -21zM175 137l-1 -3q-12 -33 -16.5 -49.5t-2 -33.5t15.5 -30l70 -70q8 -8 20 -8.5t20 7.5l104 138q19 27 2 44l-55 55l10 14q58 77 115 134q65 65 153 131l15 10l53 -53
q17 -17 45 2l139 104q7 5 8 14q1 14 -11 26l-69 70q-21 19 -48 18.5t-69 -22.5q-160 -94 -281 -215q-52 -51 -106 -122t-75.5 -104t-35.5 -57z" />
    <glyph glyph-name="uniE611" unicode="&#xe611;" horiz-adv-x="1025" 
d="M494 24l-2 2l-492 466l100 83l401 -380l430 354l93 -89l-529 -434zM494 24z" />
    <glyph glyph-name="uniE612" unicode="&#xe612;" 
d="M445.5 95q-38.5 0 -65.5 -27t-27 -65t27 -65t65.5 -27t65.5 27t27 65t-27 65t-65.5 27zM445.5 -39q-17.5 0 -30 12.5t-12.5 30t12.5 29.5t30 12t30 -12t12.5 -29.5t-12.5 -30t-30 -12.5zM829.5 95q-38.5 0 -65.5 -27t-27 -65t27 -65t65.5 -27t65.5 27t27 65t-27 65
t-65.5 27zM829.5 -39q-17.5 0 -30 12.5t-12.5 30t12.5 29.5t30 12t30 -12t12.5 -29.5t-12.5 -30t-30 -12.5zM927 180h-587q-2 0 -5 -1q-21 0 -24 16q-3 15 12 19q4 1 8 0l1 1l587 17q3 0 6 0.5t9.5 3.5t12 7.5t9.5 14.5t4 23v234v0h-37v-9h-101v29l101 -4v-16h37
q0 14 -4.5 23.5t-9.5 14.5t-11.5 7.5t-9.5 3t-6 0.5l-678 27l-24 66h-6h-58q-6 14 -18 23t-26 9q-21 0 -35 -14t-14 -34.5t14 -35t35 -14.5q28 0 43 29h40l112 -371q-3 2 -4 1q-25 0 -33 -33q-11 -41 15 -70q20 -21 53 -21h5h587q8 0 15 11.5t7 21.5q0 9 -6.5 15t-15.5 6z
M339 251l-16 56h70l10 -55zM794 262l-114 -3l-3 48h117v-45zM794 335h-118l-1 28h119v-28zM794 392h-120l-2 30h122v-30zM794 449h-123l-1 30h124v-30zM822 479h101v-30h-101v30zM822 422h101v-30h-101v30zM822 363h101v-28h-101v28zM822 307h101v-26v-15v-1l-101 -3v45z
M794 536v-30h-126l-1 34zM651 258l-113 -3l-3 52h114zM648 335h-115l-1 28h115zM645 392h-115l-1 30h115zM643 449h-116l-1 30h115zM639 541l1 -35h-116l-2 39zM509 255l-78 -2l-9 54h85zM505 335h-88l-5 28h92zM502 392h-95l-5 30h98zM499 449h-101l-5 30h104zM494 546
l2 -40h-108l-7 45zM251 555l102 -3l7 -46h-93zM272 479h93l5 -30h-86zM300 392l-11 30h85l5 -30h-79zM384 363l5 -28h-71l-13 28h79z" />
    <glyph glyph-name="uniE613" unicode="&#xe613;" 
d="M524 784q-116 0 -214.5 -57.5t-156 -156t-57.5 -214.5t57.5 -214.5t156 -156t214.5 -57.5t214.5 57.5t156 156t57.5 214.5t-57.5 214.5t-156 156t-214.5 57.5zM524 -25q-103 0 -191 51t-139 138.5t-51 191t51 191.5t139 139t191 51t191 -51t139 -139t51 -191.5t-51 -191
t-139 -138.5t-191 -51zM546 356v301h-44v-343v-2l343 -3v44z" />
    <glyph glyph-name="uniE614" unicode="&#xe614;" horiz-adv-x="1244" 
d="M786 335q48 37 75 92t27 118q0 110 -78 188.5t-188 78.5t-188 -78.5t-78 -188.5q0 -63 27 -118t75 -92q-125 -50 -202.5 -162.5t-77.5 -250.5v-89q0 -19 13 -32t31 -13h800q18 0 31 13t13 32v89q0 138 -77.5 250.5t-202.5 162.5v0zM429 545q0 80 56.5 136.5t136.5 56.5
t136.5 -56.5t56.5 -136.5t-56.5 -136.5t-136.5 -56.5t-136.5 56.5t-56.5 136.5v0zM999 -139h-754v47q0 103 50.5 190t137.5 138t189 51t189 -51t137.5 -138t50.5 -190v-47v0zM278 294l9 2q14 4 22.5 15.5t8.5 26.5q0 13 -8 24.5t-22 16.5q-35 16 -56.5 49t-21.5 72
q0 43 31 78t74 49q14 43 41 79l10 16q-1 0 -4.5 0.5t-5.5 0.5q-92 0 -157 -65.5t-65 -157.5q0 -85 57 -149q-87 -45 -139 -130t-52 -186v-69q0 -18 13 -31t32 -13h79q0 34 9 78h-56v35q0 92 56 164t145 95v0zM1052 351q58 64 58 149q0 92 -65 157.5t-157 65.5
q-2 0 -5.5 -0.5t-5.5 -0.5q6 -8 10 -16q28 -36 42 -79q44 -14 78 -49.5t34 -77.5q0 -39 -21.5 -72t-57.5 -49q-13 -5 -21.5 -16.5t-8.5 -24.5q0 -15 9 -26.5t23 -15.5l9 -2q89 -23 145 -95t56 -164v-35h-64q9 -43 9 -78h80q18 0 31 13t13 31v69q0 101 -51.5 186t-139.5 130
v0z" />
    <glyph glyph-name="uniE615" unicode="&#xe615;" horiz-adv-x="1161" 
d="M68 744v-888h956v307h68v-307q0 -27 -22 -47.5t-46 -20.5h-956q-35 0 -51.5 16.5t-16.5 51.5v888q0 27 22 47.5t46 20.5h478v-68h-478zM785 573v239l376 -341l-376 -342v239q-6 1 -18 2t-49 -0.5t-74.5 -7.5t-91 -22t-103 -41t-106 -69t-104.5 -101q-1 10 -0.5 26t8.5 62
t25 88t57 93t96 88t149.5 62t210.5 25z" />
    <glyph glyph-name="uniE616" unicode="&#xe616;" 
d="M566 185h-99v14q1 0 10 1q5 0 9 1q5 2 8 6.5t3 12.5v127q0 7 -3 12.5t-8 9.5q-4 3 -11.5 4.5t-14.5 1.5v14l73 5l3 -3v-168q0 -8 3 -12.5t9 -7.5q4 -2 8.5 -3t9.5 -1v-14zM540 475q0 -12 -7.5 -20.5t-19.5 -8.5q-11 0 -18.5 8.5t-7.5 19.5t7.5 19.5t18.5 8.5
q12 0 19.5 -8t7.5 -19zM522 -141q-89 0 -170 35t-139.5 93.5t-93.5 140t-35 170t35 170t93.5 140t139.5 93t170 34.5t170 -34.5t140 -93t93.5 -140t34.5 -170t-34.5 -170t-93.5 -140t-140 -93.5t-170 -35zM522 713q-113 0 -208.5 -55.5t-151 -151.5t-55.5 -208.5
t55.5 -208.5t151 -151.5t208.5 -55.5t208.5 55.5t151 151.5t55.5 208.5t-55.5 208.5t-151 151.5t-208.5 55.5z" />
    <glyph glyph-name="uniE617" unicode="&#xe617;" 
d="M778.5 335q-75.5 0 -129 54.5t-53.5 130.5t53.5 130t129 54t129 -54t53.5 -130t-53.5 -130.5t-129 -54.5zM863 563h-42v42q0 18 -12.5 30.5t-30 12.5t-29.5 -12.5t-12 -30.5v-43h-42q-18 0 -30.5 -12t-12.5 -30t12.5 -30.5t30.5 -12.5h42v-42q0 -18 12 -30.5t29.5 -12.5
t30 12.5t12.5 30.5v42h42q17 0 29.5 12.5t12.5 30.5t-12.5 30.5t-29.5 12.5zM403 210l362 24l26 60q59 3 108 34l-68 -152q-10 -23 -35 -25l-364 -24l21 -61h396q35 0 59.5 -25t24.5 -60t-24.5 -60t-59.5 -25t-59.5 25t-24.5 60h-393q0 -35 -25 -60t-60 -25t-59.5 25
t-24.5 60t24.5 60t59.5 25h76l-162 468h-96q-18 0 -30 12.5t-12 30t12 30t30 12.5h126q14 0 24.5 -8t15.5 -20l24 -71h259q0 -44 17 -85h-246z" />
    <glyph glyph-name="uniE618" unicode="&#xe618;" 
d="M171 769h682q53 0 90.5 -37.5t37.5 -90.5v-682q0 -53 -37.5 -90.5t-90.5 -37.5h-682q-53 0 -90.5 37.5t-37.5 90.5v682q0 53 37.5 90.5t90.5 37.5zM896 69l-213 213l-367 -366h537q18 0 30.5 12.5t12.5 30.5v110zM853 684h-682q-18 0 -30.5 -12.5t-12.5 -30.5v-682
q0 -18 12.5 -30.5t30.5 -12.5h25l487 487l213 -213v451q0 18 -12.5 30.5t-30.5 12.5zM341 599q53 0 90.5 -37.5t37.5 -90.5t-37.5 -90.5t-90.5 -37.5t-90.5 37.5t-37.5 90.5t37.5 90.5t90.5 37.5zM341.5 513q-17.5 0 -30 -12.5t-12.5 -30t12.5 -30t30 -12.5t30 12.5t12.5 30
t-12.5 30t-30 12.5z" />
    <glyph glyph-name="uniE619" unicode="&#xe619;" 
d="M0 385q0 -104 40.5 -198.5t109 -162.5t163 -108.5t198.5 -40.5q185 0 327 118q-9 9 -15 21q-135 -114 -312 -114q-99 0 -189 38.5t-155 103.5t-103 155t-38 188.5t38 188.5t103 155t155 103t188.5 38t188.5 -38t155 -103t103.5 -155t38.5 -189q0 -158 -93 -285
q13 -4 22 -13q96 133 96 298q0 104 -40.5 198.5t-108.5 163t-162.5 109t-198.5 40.5t-198.5 -40.5t-163 -109t-109 -163t-40.5 -198.5zM281 641v-77h204v-383h-76v306h-77v-306h-77v-76h511v76h-204v179h178v76h-178v128h178v77h-459z" />
    <glyph glyph-name="uniE61A" unicode="&#xe61a;" 
d="M490 570zM512 835q-92 0 -175.5 -36t-143.5 -96t-96 -143.5t-36 -175.5t36 -175.5t96 -143.5t143.5 -96t175.5 -36t175.5 36t143.5 96t96 143.5t36 175.5t-36 175.5t-96 143.5t-143.5 96t-175.5 36zM512 -31q-113 0 -208.5 55.5t-151 151t-55.5 208.5t55.5 208.5t151 151
t208.5 55.5t208.5 -55.5t151 -151t55.5 -208.5t-55.5 -208.5t-151 -151t-208.5 -55.5zM284 228h82v296h-63v19q41 7 69 23h24v-338h75v-25h-187v25zM531 386q0 92 28.5 139t78.5 47q51 0 79 -47t28 -139q0 -94 -28 -142t-79 -48q-50 0 -78.5 48t-28.5 142zM716 386
q0 79 -21 120.5t-57 41.5t-57 -41.5t-21 -120.5q0 -81 21 -123t57 -42t57 42t21 123z" />
    <glyph glyph-name="uniE61B" unicode="&#xe61b;" 
d="M586 467h53v-51h-53v51zM586 548h53v-52h-53v52zM586 387h53v-55h-53v55zM670 387h56v-55h-56v55zM510 833q-91 0 -174 -35t-143 -95t-95 -143t-35 -174t35 -174t95 -143t143 -95t174 -35t174 35t143 95t95 143t35 174t-35 174t-95 143t-143 95t-174 35zM319 625h83
q29 0 45 2q-2 -20 -2 -55v-264q0 -34 2 -56h-39q2 20 2 55v286h-105v-288q0 -30 2 -53h-39q2 26 2 53v266q0 33 -3 55q25 -1 52 -1zM375 371q0 -78 -6 -114.5t-22 -65.5q-24 -43 -79 -84q-12 15 -29 28q33 22 51.5 40.5t30.5 43.5q19 39 19 152v102q0 51 -3 76h40
q-2 -26 -2 -75v-103zM418 136q-13 40 -41 86l31 17q25 -46 40 -81zM774 142q-71 55 -106 126q2 -25 2 -50v-48q0 -36 4 -60h-37q2 25 2 61v133h-53v-133q0 -44 2 -61h-38q5 24 5 60v43q0 26 1 53q-33 -74 -90 -123q-6 15 -21 27q42 31 73 78q13 22 29 56h-27q-31 0 -49 -3
v33q21 -2 49 -2h35v55h-41q-29 0 -54 -3v36q21 -4 54 -4h41v51h-25q-37 0 -55 -3v35q18 -3 55 -3h25v52h-37q-37 0 -55 -3v36q22 -3 57 -3h35q-13 25 -39 57l30 13q25 -34 45 -70h47q26 34 43 72l35 -13q-24 -38 -41 -59h50q32 0 58 3v-36q-30 3 -58 3h-55v-52h40q34 0 49 3
q-2 -18 -2 -51v-32q18 0 34 4v-36q-20 3 -34 3v-35q0 -33 2 -51q-18 3 -49 3h-32q21 -43 48 -72.5t72 -56.5q-14 -14 -24 -33zM670 467h56v-51h-56v51z" />
    <glyph glyph-name="uniE61C" unicode="&#xe61c;" 
d="M819 803h-56q-13 0 -23.5 -7t-10.5 -18q0 -12 11 -21.5t23 -9.5h56q25 0 40 -15.5t15 -40.5v-643q0 -25 -15 -40.5t-40 -15.5h-602q-26 0 -48 16t-22 40v643q0 25 15.5 40.5t40.5 15.5h70q21 0 21 31q0 25 -21 25h-70q-56 0 -84 -31t-28 -82v-636q0 -53 31 -85.5
t87 -32.5h604q57 0 87 30t30 88v636q0 50 -29.5 81.5t-81.5 31.5zM273 551q0 -12 8.5 -20.5t19.5 -8.5h420q12 0 20.5 8.5t8.5 20t-8.5 20t-20.5 8.5h-420q-11 0 -19.5 -8.5t-8.5 -19.5zM720 425h-419q-11 0 -19.5 -8.5t-8.5 -20t8.5 -20t19.5 -8.5h420q12 0 20.5 8.5
t8.5 19.5q-1 13 -9.5 21t-20.5 8zM720 257h-419q-11 0 -19.5 -8.5t-8.5 -20t8.5 -20t19.5 -8.5h420q12 0 20.5 8.5t8.5 20.5q-1 12 -9.5 20t-20.5 8zM414 733h195q17 0 29.5 14.5t12.5 34t-12.5 34t-30.5 14.5h-194q-17 0 -29.5 -14.5t-12.5 -34t12.5 -34t29.5 -14.5z
M414 733z" />
    <glyph glyph-name="uniE61D" unicode="&#xe61d;" 
d="M947 527l-1 1q0 3 -1 5l-75 185q-10 28 -35.5 45t-58.5 17h-526q-33 0 -57 -16t-34 -44l-80 -189q-1 -1 -1 -4q-9 -27 -9 -55q0 -48 25 -89t68 -64v0q36 -19 83 -19q81 0 134 62q52 -61 133 -62q81 1 133 62q53 -62 135 -62q48 1 84 20q42 23 66.5 64t24.5 89q0 28 -8 54
zM833 376q-22 -12 -53 -12q-30 0 -55 14t-41 38q-3 9 -8 14q-12 13 -31 13q-20 0 -31 -14q-4 -4 -8 -13q-15 -24 -40 -38t-54 -14t-54 14t-40 39q-4 7 -8 12q-11 13 -31.5 13t-29.5 -12q-6 -6 -9 -14q-16 -25 -41 -39t-54 -14q-31 0 -53 12q-27 14 -43 40.5t-16 56.5
q0 19 6 37q0 1 1 2l79 186q7 19 31 19h526q27 -1 34 -20l74 -183q1 -2 1 -4q6 -18 6 -36q0 -30 -15.5 -56.5t-42.5 -40.5zM857 274q-13 0 -22.5 -9t-9.5 -23v-172q0 -8 -5 -13t-13 -5l-601 -1q-8 0 -13 5.5t-5 12.5v170q0 13 -9.5 22t-22.5 9q-14 0 -23 -9t-9 -22v-170
q0 -33 24 -57t58 -24h601q34 1 58 24.5t24 57.5v172q0 14 -9.5 23t-22.5 9zM762 559h-511q-13 0 -22.5 -9.5t-9.5 -22.5t9.5 -22t22.5 -9h511q13 0 22.5 9t9.5 22t-9.5 22.5t-22.5 9.5z" />
    <glyph glyph-name="uniE61E" unicode="&#xe61e;" 
d="M513 842q-110 0 -203 -54t-147.5 -147.5t-54.5 -203.5t54.5 -203t147.5 -147t203 -54t203 54t147 147t54 203t-54 203.5t-147 147.5t-203 54zM513.5 71q-99.5 0 -183.5 49t-133 133.5t-49 184t49 184t133 133.5t183.5 49t184 -49t133.5 -133.5t49 -184t-49 -184
t-133.5 -133.5t-184 -49zM408 583q-20 69 -42 102l-76 -26q33 -63 46 -102q52 17 72 26zM629 435h92v63h-92v100h109v61h-298v-61h120v-320h-42v198q0 26 7 42v6q12 4 -65 4h-11v-250h-39v-58h337v58h-118v157zM416 415q-4 -4 -13 -15q-11 -15 -22 -26v157h-137v-61h68v-126
q2 -46 -31 -77q29 -50 44 -69q4 6 30 39q72 96 92 124q-22 37 -31 54z" />
    <glyph glyph-name="uniE61F" unicode="&#xe61f;" 
d="M515.5 130q-106.5 0 -182.5 75.5t-76 182.5t76 182.5t182.5 75.5t182 -75.5t75.5 -182.5t-75.5 -182.5t-182 -75.5zM515.5 684q-122.5 0 -209.5 -87t-87 -209.5t87 -209t209.5 -86.5t209 86.5t86.5 209t-86.5 209.5t-209 87zM689 336q-2 14 -14 14h-142q1 7 1 8
q0 16 -14 19q-14 -2 -15 -17q0 -6 -3 -10h-139q-14 0 -14 -14t14 -14h131q-32 -53 -125 -76q-16 -5 -13 -18q4 -13 20 -10q103 26 143 90q49 -71 145 -92q17 -2 21 10q1 14 -16 18q-82 16 -125 78h131q12 0 14 14zM509 457q29 20 45 39h92q12 0 7 -11q-14 -28 -39 -44
q-35 29 -50 37q-13 7 -20 -3q-6 -11 4 -19q22 -15 41 -31q-35 -16 -88 -22q-15 -3 -14 -15q3 -13 18 -11q148 12 180 118q11 29 -17 29h-91q6 11 -4 20q-12 8 -19 -2q-21 -35 -63 -64q-12 -10 -4 -21q8 -8 22 0zM369 509q27 -21 44 -38q10 -8 20 0q7 10 -2 20q-12 15 -46 39
q-9 5 -18 -3q-7 -11 2 -18zM373 392q32 12 75 36v-44q1 -13 15 -13q14 1 14 14v152q-1 11 -14 12q-14 -1 -15 -12v-77q-26 -16 -86 -42q-12 -5 -7 -18q5 -12 18 -8zM515.5 837q91.5 0 174.5 -35.5t143 -96t95.5 -143.5t35.5 -174t-35.5 -174.5t-95.5 -143.5t-143 -95.5
t-174.5 -35.5t-174.5 35.5t-143 95.5t-95.5 143.5t-35.5 174.5t35.5 174t95.5 143.5t143 96t174.5 35.5z" />
    <glyph glyph-name="uniE620" unicode="&#xe620;" 
d="M934 464q-4 109 -60.5 201.5t-150.5 147t-204 56.5q-83 2 -160.5 -29.5t-139.5 -91.5q-57 -56 -91 -130t-39 -154q-32 -7 -52.5 -32t-20.5 -58v-118q0 -38 27 -65t65 -27q8 0 14.5 6t6.5 14v251q0 79 31 153.5t88 130.5q56 54 126 82.5t145 26.5q101 -2 187.5 -54
t137 -139.5t50.5 -189.5v0v-260v-1v-27q0 -36 -19 -66t-52 -45l-196 -90v3q0 23 -16.5 39.5t-39.5 16.5h-119q-23 0 -39.5 -16.5t-16.5 -39.5t16.5 -39.5t39.5 -16.5h154q5 0 9 2l226 104q43 20 68.5 60t25.5 88v9q31 7 51.5 32t20.5 57v119q0 33 -20.5 58t-52.5 32zM57 256
v118q0 33 30 46v-210q-30 13 -30 46zM586 -56h-134q-6 0 -10.5 4.5t-4.5 10.5t4.5 10.5t10.5 4.5h119q6 0 10.5 -4.5t4.5 -10.5v-15zM965 256q0 -33 -30 -46v210q30 -13 30 -46v-118zM817 350q0 1 -1 2v1h28q8 0 14 6.5t6 14.5v71q0 96 -47 177.5t-128.5 128.5t-177 47
t-177 -47t-129 -128.5t-47.5 -177.5v-71q0 -8 6 -14t15 -6h27v-2v-2q0 -126 89.5 -215.5t216 -89.5t216 89.5t89.5 215.5zM200 445q0 129 91 220.5t220 91.5t220.5 -91.5t91.5 -220.5v-50h-125v98q0 16 -15 20t-23 -9l-65 -109h-395v50zM247 350v2v2h359q12 0 18 10l33 54
v-44q0 -8 6 -14.5t14 -6.5h99v-1q-1 -1 -1 -2q0 -109 -77 -186.5t-186.5 -77.5t-187 77.5t-77.5 186.5z" />
    <glyph glyph-name="uniE621" unicode="&#xe621;" 
d="M510.5 833q-90.5 0 -173.5 -35.5t-143 -95.5t-95.5 -143t-35.5 -173.5t35.5 -173.5t95.5 -143t143 -95.5t173.5 -35.5t173.5 35.5t143 95.5t95.5 143t35.5 173.5t-35.5 173.5t-95.5 143t-143 95.5t-173.5 35.5zM788 510l-333 -334q-6 -6 -14.5 -6t-14.5 6l-44 44
l-145 145q-6 6 -6 14.5t6 14.5l44 44q6 6 14.5 6t14.5 -6l130 -131l276 276q6 6 14.5 6t14.5 -6l43 -44q6 -6 6 -14.5t-6 -14.5z" />
    <glyph glyph-name="uniE622" unicode="&#xe622;" 
d="M512 832q-185 0 -316.5 -131.5t-131.5 -316.5t131.5 -316.5t316.5 -131.5t316.5 131.5t131.5 316.5t-131.5 316.5t-316.5 131.5zM512 0q-159 0 -271.5 112.5t-112.5 271.5t112.5 271.5t271.5 112.5t271.5 -112.5t112.5 -271.5t-112.5 -271.5t-271.5 -112.5zM641 384
q13 0 22.5 9.5t9.5 22.5t-9.5 22.5t-22.5 9.5h-97v15l119 124q9 10 8.5 23t-10 22t-22.5 9t-22 -10l-102 -107l-107 108q-10 9 -23 9t-22.5 -9.5t-10 -22.5t9.5 -23l118 -118v-20h-95q-13 0 -22.5 -9.5t-9.5 -22.5t9.5 -22.5t22.5 -9.5h95v-64h-95q-13 0 -22.5 -9.5
t-9.5 -22.5t9.5 -22.5t22.5 -9.5h95v-95q0 -13 9.5 -22.5t22.5 -9.5t22.5 9.5t9.5 22.5v95h97q13 0 22.5 9.5t9.5 22.5t-9.5 22.5t-22.5 9.5h-97v64h97z" />
    <glyph glyph-name="uniE623" unicode="&#xe623;" 
d="M889 362q5 15 8 30.5t4.5 34.5t2 30.5t1 35.5t0.5 31q3 126 3 189q0 14 -10.5 24.5t-24.5 10.5q-45 -2 -84.5 -14.5t-94.5 -36.5q-13 60 -52 111q-25 33 -61.5 60.5t-69.5 27.5q-52 0 -124 -83q-42 -47 -61 -113q-45 23 -82 34.5t-81 12.5q-14 0 -24.5 -10t-10.5 -24
q0 -28 -2 -88t-2.5 -97.5t5 -88t18.5 -89.5q35 -102 125.5 -165.5t201.5 -76.5v-201q0 -22 17 -31t33.5 0t16.5 31v199q118 5 214 75.5t134 180.5zM202 410q-5 19 -6 40t0 53t1 40v132q12 -2 25 -5.5t22 -6.5t23.5 -10t20.5 -10t23.5 -12.5t22.5 -11.5q18 -10 34 -0.5
t18 29.5q6 54 37 99.5t79 72.5q13 8 34 -5t34 -28t23 -28q34 -43 39 -104q-1 -7 1 -14q4 -19 21.5 -25.5t31.5 2.5q11 4 37 16t39.5 18t35 12.5t40.5 10.5q0 -33 -0.5 -69t-1.5 -80t-1 -68q-2 -79 -45 -143t-110.5 -100t-146.5 -41q-115 -7 -210 59.5t-121 176.5zM202 410z
M259 134q-25 10 -56.5 11t-61.5 -5.5t-55 -25t-37 -44.5q-8 -20 2.5 -33t30 -10.5t33.5 21.5q10 15 39 24q61 22 125 -30q54 -44 97 -121q7 -11 17 -14.5t19.5 -0.5t18 10t10 18t-4.5 22q-82 141 -177 178zM259 134zM975 60q-11 27 -36 45t-55 25t-61.5 5.5t-57.5 -11.5
q-94 -36 -176 -178q-8 -15 -2.5 -27t16 -19t24.5 -4.5t22 16.5q39 68 97 121q48 43 115 31q25 -5 41 -16q2 -2 6 -7l1 2q11 -28 41 -23q25 3 28 24q1 7 -3 16zM975 60z" />
    <glyph glyph-name="uniE624" unicode="&#xe624;" 
d="M973 166q-10 15 -30 19t-34 -6l-83 -38l-90 179q-14 29 -50 29t-46 -29l-90 -186l-76 39q-19 10 -37 5t-27 -24q-18 -18 -7 -52l45 -160q10 -38 51 -38h378q19 0 35 12t16 26l51 173q11 34 -6 51zM877 -32h-371l-45 147l70 -32q7 -6 26 -6q30 0 51 32l83 173l83 -173
q10 -20 30.5 -27.5t40.5 1.5l70 32zM518 339q26 0 39 -6h6q10 0 21 8t11 17q0 20 -6 26q69 30 114.5 93t45.5 137q0 105 -74 177.5t-176 72.5q-101 0 -178.5 -74.5t-77.5 -175.5q0 -70 38.5 -129.5t102.5 -94.5q-156 -34 -257 -153t-101 -275q0 -15 8.5 -23.5t23 -8.5
t23.5 8.5t9 23.5q0 104 52 190.5t143 136.5t201 50h32zM307 614q0 77 54.5 131.5t131.5 54.5t131 -54.5t54 -131.5t-51.5 -131t-127.5 -54q-77 0 -134.5 54.5t-57.5 130.5z" />
    <glyph glyph-name="uniE625" unicode="&#xe625;" 
d="M132 763h759q15 0 25 10t10 24.5t-10 24.5t-25 10h-759q-14 0 -24 -10t-10 -24.5t10 -24.5t24 -10zM847 373l-311 311l-1 1l-1 1l-1 1h-1v1h-1l-1 1v0q-1 0 -1 1h-1v0l-1 1h-1h-1l-1 1h-2v0q-1 1 -2 1v0h-1h-1l-1 1h-1v0h-2v0h-2h-2h-1h-1h-1l-1 -1h-1h-1v0h-1l-1 -1h-1
h-1l-1 -1h-1h-1v-1h-1v0q-1 -1 -2 -1v0l-1 -1h-1v-1h-1l-1 -1h-1v-1l-1 -1l-311 -311q-10 -10 -10 -24t10 -24.5t24 -10.5t25 10l251 252v-606q0 -14 10.5 -24t24.5 -10t24 10t10 24v606l252 -252q10 -10 24.5 -10t24.5 10.5t10 24.5t-10 24z" />
    <glyph glyph-name="uniE626" unicode="&#xe626;" horiz-adv-x="1025" 
d="M689 481h-63v-76h-228v76h-63q-5 -11 -14.5 -29.5t-40.5 -71t-63 -98.5t-78 -99t-89 -86q-27 -153 67 -203q23 -13 44 -15h343h16h343q2 0 5.5 0.5t13 3.5t18.5 7t21 12.5t22 19.5t18.5 28t13.5 37t5 48.5t-6 61.5q-43 33 -88.5 85t-79 101.5t-61.5 95.5t-42 73.5
t-14 28.5zM916 -49q-22 -28 -55 -33h-341h-16h-341q-33 5 -54 32q-34 42 -22 127q45 36 90 88.5t81.5 108t59 93.5t41.5 73v-35v-39h39h228h39v39v35q19 -35 41.5 -73t59 -93.5t81.5 -108t90 -88.5q12 -84 -21 -126zM1024 516q-3 86 -64.5 145.5t-147.5 59.5h-600
q-85 0 -146.5 -58.5t-65.5 -144.5v-26q0 -24 17.5 -41.5t42.5 -17.5h187q24 0 41.5 17.5t17.5 42.5v22q0 10 7 17t16 7h363q10 0 17 -7t7 -16v-24q0 -24 17.5 -41.5t42.5 -17.5h188q25 0 42.5 17.5t17.5 41.5v24zM964 472h-188q-9 0 -15 6t-6 14l1 24q0 26 -19 44.5
t-45 18.5h-363q-25 0 -43.5 -18t-19.5 -43v-1l1 -25q0 -8 -6 -14t-14 -6h-187q-9 0 -14.5 6t-5.5 14v23q2 70 52 118.5t120 48.5h600q70 0 120 -48.5t52 -117.5v-24q0 -8 -6 -14t-14 -6zM512 323q-85 0 -144.5 -53.5t-59.5 -129t59.5 -128.5t144.5 -53q69 0 124 37l-35 70
l82 -25q33 45 33 100q0 75 -59.5 128.5t-144.5 53.5zM512 51q-42 0 -71.5 26.5t-29.5 63.5t29.5 63t71.5 26t71.5 -26t29.5 -63t-29.5 -63.5t-71.5 -26.5z" />
    <glyph glyph-name="uniE627" unicode="&#xe627;" 
d="M855 108q-46 32 -86 54q-48 25 -71 25q-31 0 -53 -32q-9 -14 -23 -46q-12 -29 -18 -35q-23 5 -72 39q-59 41 -107 89q-47 48 -88 108q-33 50 -39 74q7 5 35 17q32 14 46 24q31 22 31 53q0 23 -25 72q-21 41 -53 87q-33 48 -63 79q-39 41 -67 41q-22 0 -49 -20t-42 -37
t-28 -34q-67 -91 -67 -165q0 -76 75 -200q72 -118 181 -231l22 -23h1q111 -110 227 -182q123 -77 198 -77q73 0 164 68q17 13 33.5 28.5t36.5 43t20 48.5q0 28 -41 69q-31 29 -78 63zM839 -84q-71 -53 -119 -53q-53 0 -158 65q-110 68 -215 172l-22 22q-102 107 -170 217
q-65 107 -65 162q0 49 53 120q31 41 56 58q7 -5 16 -15q26 -26 56 -70q29 -42 48 -79q10 -18 14 -31q-8 -5 -30 -15q-37 -16 -52 -27q-16 -14 -23 -34t-2 -41q8 -37 50 -99q43 -65 95 -118q1 -1 1 -2q53 -52 117 -96q62 -42 98 -51q9 -2 17 -2q37 0 59 29q11 14 27 51
q10 23 15 31q11 -5 28 -14q37 -20 79 -49q42 -30 69 -56q10 -10 15 -17q-15 -26 -57 -58zM515 404q50 9 90.5 -18.5t49.5 -74.5q2 -13 12.5 -22t23.5 -9q4 0 7 1q15 3 24 15.5t6 27.5q-14 79 -81 124q-66 44 -145 29q-15 -2 -24 -15t-6 -28t15.5 -24t27.5 -6zM831 682
q-76 50 -164.5 68t-179.5 2q-15 -3 -24 -15.5t-6.5 -27.5t15.5 -24t28 -6q159 28 289 -59q63 -42 103.5 -104t53.5 -135q2 -13 12.5 -22t24.5 -9q3 0 6 1q15 2 24 15t7 28q-16 88 -64.5 162.5t-124.5 125.5zM515 542q94 16 172 -35q77 -52 92 -142q3 -13 13.5 -21.5
t23.5 -8.5h7q15 3 24 15.5t6 27.5q-21 121 -125 191q-102 68 -226 46q-15 -3 -24 -15.5t-6 -28t15.5 -24t27.5 -5.5z" />
    <glyph glyph-name="uniE628" unicode="&#xe628;" 
d="M918 131h-78l-1 79q0 16 -11 27.5t-27 11.5t-27.5 -11.5t-11.5 -27.5v-79h-80q-16 0 -27.5 -11t-11.5 -27t11.5 -27.5t27.5 -11.5h80l-1 -80q0 -16 11.5 -27.5t28 -11.5t28 11.5t11.5 27.5v80h78q17 0 28.5 11.5t11.5 27.5t-11.5 27t-28.5 11zM680 223v-1h1q7 -2 14 -2
q16 0 28 11t12 27l-1 4q0 13 -8 23l1 1q-1 0 -2 1q-6 7 -15 11q-33 22 -69 37q55 38 87.5 97t32.5 128q0 112 -81 191.5t-195 79.5t-195 -79.5t-81 -191.5q0 -69 32.5 -128t87.5 -97q-94 -39 -157 -120t-78 -182q-2 -6 -2 -13l1 -3h-1h1q0 -16 11.5 -27.5t27.5 -11.5
t27.5 11.5t11.5 27.5h1q14 111 97.5 188.5t198.5 83.5q9 -1 17 -1t17 1q89 -5 163 -55q6 -8 15 -11zM485 366q-82 0 -139.5 56.5t-57.5 137t57.5 137t139.5 56.5t139.5 -56.5t57.5 -137t-57.5 -137t-139.5 -56.5z" />
    <glyph glyph-name="uniE629" unicode="&#xe629;" 
d="M511 714q-107 0 -183 -76.5t-76 -184t76 -183.5t183 -76t183 76t76 183.5t-76 184t-183 76.5v0zM511 238q-89 0 -151.5 63.5t-62.5 152.5t62.5 152t151.5 63t152 -63t63 -152t-63 -152.5t-152 -63.5v0zM762 231l-14 7l-12 -10q-41 -38 -100 -58.5t-125 -20.5t-125 20.5
t-100 58.5l-12 10l-13 -7q-85 -45 -124 -104.5t-46 -153.5q-1 -9 5 -16t15 -8h2q9 0 15 6t7 15q6 79 36 127.5t97 86.5q99 -79 243.5 -79t242.5 79q68 -38 98 -86.5t35 -127.5q1 -10 8 -16t16 -5t15 8t6 16q-7 94 -46.5 153.5t-123.5 104.5v0zM215 350v196q25 103 107 168
t190 65q106 0 187.5 -63.5t107.5 -165.5v-198q44 0 74 30.5t30 74.5q0 30 -16 55.5t-43 38.5q-26 120 -121 196.5t-219.5 76.5t-219 -76.5t-121.5 -196.5q-27 -13 -43 -38t-16 -56q0 -44 30 -75.5t73 -31.5v0zM215 350z" />
    <glyph glyph-name="uniE62A" unicode="&#xe62a;" 
d="M290 885q23 0 40 -17l444 -444q17 -17 17 -40t-17 -40l-444 -444q-17 -17 -40 -17t-40 17.5t-17 40t17 39.5l401 404l-401 401q-17 17 -17 40t17 40q16 20 40 20z" />
    <glyph glyph-name="uniE62B" unicode="&#xe62b;" 
d="M724.5 -79q-18.5 0 -31.5 14l-418 417q-13 13 -13 32t13 32l418 417q13 14 31.5 14t32 -13.5t13.5 -32t-14 -31.5l-385 -386l385 -386q14 -13 14 -31.5t-13.5 -32t-32 -13.5z" />
    <glyph glyph-name="uniE62C" unicode="&#xe62c;" 
d="M872 827h-85v-69q0 -20 -16 -33.5t-38.5 -13.5t-38 13.5t-15.5 33.5v69h-334v-69q0 -20 -15.5 -33.5t-38 -13.5t-38.5 13.5t-16 33.5v69h-85q-44 0 -74.5 -27t-30.5 -65v-743q0 -38 30.5 -65t74.5 -27h720q44 0 74.5 27t30.5 65v743q0 38 -30.5 65t-74.5 27zM909 6
q0 -12 -10.5 -21t-26.5 -9h-720q-16 0 -26.5 9t-10.5 21v560h794v-560zM292 729q11 0 18.5 5.5t7.5 14.5v124q0 8 -7.5 14t-18.5 6t-18.5 -6t-7.5 -14v-124q0 -9 7.5 -14.5t18.5 -5.5zM732 729q11 0 18.5 5.5t7.5 14.5v124q0 8 -7.5 14t-18.5 6t-18.5 -6t-7.5 -14v-124
q0 -9 7.5 -14.5t18.5 -5.5zM750 398l-254 -293q-10 -11 -24 -11t-25 11l-142 165q-10 11 -10 27.5t10 28.5t24.5 12t24.5 -12l118 -136l229 264q10 12 24.5 12t24.5 -11.5t10 -28t-10 -28.5z" />
    <glyph glyph-name="uniE62D" unicode="&#xe62d;" 
d="M746 399q-1 17 -12.5 28t-27.5 11h-393q-15 0 -27 -12t-12 -28t12 -27.5t27 -11.5h394q16 0 27.5 11.5t11.5 27.5v1zM419 705h183q21 0 36 17t15 41t-15 41.5t-37 17.5h-182q-21 0 -36.5 -17.5t-15.5 -41.5t15.5 -41t36.5 -17zM707 584h-394q-15 0 -27 -11.5t-12 -27.5
t12 -28t27 -12h394q16 0 27.5 12t11.5 28t-11.5 27.5t-27.5 11.5zM706 279h-393q-15 0 -27 -11.5t-12 -27.5t12 -28t27 -12h394q16 0 27.5 12t11.5 28v1q-1 16 -12.5 27t-27.5 11zM885 761q-32 35 -87 35h-52q-17 0 -30.5 -10t-13.5 -26t13.5 -29t30.5 -13h52q19 0 29.5 -11
t10.5 -29v-610q0 -18 -10.5 -29t-29.5 -11h-564q-20 0 -36.5 12t-16.5 28v610q0 18 11 29t29 11h66q14 0 23 11.5t9 30.5q0 17 -8.5 26.5t-23.5 9.5h-66q-55 0 -86 -32t-31 -88v-602q0 -56 33.5 -90t88.5 -34h567q59 0 90.5 32t31.5 92v602q0 53 -30 85z" />
    <glyph glyph-name="uniE62E" unicode="&#xe62e;" 
d="M783 506h-542v281h542v-281zM266 531h492v231h-492v-231zM264 -216h-256v256h256v-256zM34 -190h204v205h-204v-205zM640 -216h-256v256h256v-256zM410 -190h204v205h-204v-205zM1014 -216h-256v256h256v-256zM783 -190h205v205h-205v-205zM123 315h788v-26h-788v26z
M123 302h26v-222h-26v222zM499 471h26v-355h-26v355zM886 308h25v-228h-25v228z" />
    <glyph glyph-name="uniE62F" unicode="&#xe62f;" 
d="M986 269h-128q-117 203 -320 211v141h83q9 0 17 8t8 17v205q0 10 -8 18t-17 8h-211q-26 0 -26 -26v-205q0 -9 8 -17t18 -8h83v-141q-64 -2 -118.5 -21.5t-93 -51t-64.5 -65.5t-44 -73h-128q-10 0 -18 -8t-8 -18v-205q0 -9 8 -17t18 -8h205q9 0 17 8t8 17v205q0 10 -8 18
t-17 8h-39q96 165 282 173v-173h-83q-11 0 -18.5 -5t-7.5 -14v-205q0 -10 8 -18t18 -8h204q10 0 18 8t8 18v205q0 9 -8 17t-18 8h-83v167q102 -5 173 -53.5t109 -119.5h-32q-10 0 -18 -8t-8 -18v-205q0 -9 8 -17t18 -8h205q9 0 17 8t8 17v205q0 26 -25 26z" />
    <glyph glyph-name="uniE630" unicode="&#xe630;" 
d="M884 73v-1l1 -1q0 -28 11.5 -69.5t22.5 -60.5q1 -4 1 -8q0 -9 -6 -15t-14 -6q-1 0 -3 0.5t-3 0.5q-46 7 -99 47t-74 66q-17 -3 -39 -3h-19q-96 0 -172.5 33.5t-125.5 92.5l93 2h-1q81 -64 206 -64q36 0 49 2l34 5q21 -38 84 -84q-3 9 -5 35.5t-3 46t-1 21.5l32 16
q56 28 81.5 66.5t25.5 90.5q0 44 -15.5 74.5t-54.5 58.5q13 40 16 69q118 -69 118 -202q0 -142 -140 -213zM425 217h-11h-11q-24 0 -46 3q-19 -24 -92.5 -71t-127.5 -56h-3h-4q-9 0 -16 6.5t-7 16.5q0 5 2 10q54 93 54 137v1v1q-79 41 -121 117.5t-42 161.5t56 157
t152 113.5t209.5 41.5t209 -41.5t150.5 -113.5t55 -157q1 -96 -52.5 -171t-146.5 -115.5t-208 -40.5zM418 792q-96 0 -177.5 -33t-129 -90t-47.5 -125q0 -67 32.5 -128.5t95.5 -93.5l35 -18l-3 -39q1 -20 -20 -81q24 15 51 36.5t35 31.5l41 34l35 -3q14 -2 29 -3t24 0h8
q146 0 243 75t98 189q0 68 -46.5 125t-127 90t-176.5 33zM418 792z" />
    <glyph glyph-name="uniE631" unicode="&#xe631;" horiz-adv-x="1057" 
d="M725 547q0 82 -57.5 139t-139.5 57t-139.5 -57t-57.5 -138.5t57.5 -139t139.5 -57.5t139.5 57.5t57.5 138.5zM375 547q0 64 45 108.5t108 44.5t108 -44.5t45 -108t-45 -108t-108 -44.5t-108 44.5t-45 107.5zM878 547q0 95 -46.5 175.5t-127.5 127t-176 46.5t-176 -46.5
t-127.5 -127t-46.5 -175.5q0 -54 36 -136.5t87.5 -162t103 -151t87.5 -116.5t36 -44q14 17 37.5 46.5t84 112t107 155.5t84 157.5t37.5 138.5zM528 852q127 0 217 -89t90 -216q0 -47 -32 -120t-77 -144.5t-90 -135.5t-76.5 -104.5t-31.5 -39.5q-12 15 -33 41.5t-73.5 100.5
t-93 139.5t-73.5 140.5t-33 122q0 127 89.5 216t216.5 89zM683 77q-14 -18 -28 -38q71 -8 114.5 -23.5t43.5 -34.5q0 -27 -83.5 -46t-201.5 -19t-201.5 19t-83.5 46q0 19 43.5 34.5t114.5 23.5q-14 20 -28 38q-79 -14 -126 -39.5t-47 -56.5q0 -45 96 -77t232 -32t232 32
t96 77q0 31 -47 56.5t-126 39.5zM683 77z" />
    <glyph glyph-name="uniE632" unicode="&#xe632;" 
d="M795 -128v459h160q28 0 48.5 -20.5t20.5 -48.5v-321q0 -28 -20.5 -48.5t-48.5 -20.5h-160zM795 437v68h160h1l1 1v321q0 1 -0.5 1.5t-1.5 0.5h-160v67h160q28 0 48.5 -20.5t20.5 -48.5v-321q0 -28 -20.5 -48.5t-48.5 -20.5h-160zM229 896h161q28 0 48.5 -20.5t20.5 -48.5
v-321q0 -28 -20.5 -48.5t-48.5 -20.5h-161v68h161h1v1v321q0 1 -1 1v1h-161v67zM795 896v-67h-161v-1q-1 0 -1 -1v-321v-1h1h161v-68h-161q-28 0 -48.5 20.5t-20.5 48.5v321q0 28 20.5 48.5t48.5 20.5h161zM795 331v-459h-161q-28 0 -48.5 20.5t-20.5 48.5v321
q0 28 20.5 48.5t48.5 20.5h161zM229 -128v67h161l1 1v1v321v1h-1h-161v68h161q28 0 48.5 -20.5t20.5 -48.5v-321q0 -28 -20.5 -48.5t-48.5 -20.5h-161zM69 896h160v-67h-160q-1 0 -1.5 -0.5t-0.5 -1.5v-321l1 -1h1h160v-68h-160q-28 0 -48.5 20.5t-20.5 48.5v321
q0 28 20.5 48.5t48.5 20.5zM229 331v-68h-160h-1l-1 -1v-321q0 -1 1 -1q0 -1 1 -1h160v-67h-160q-28 0 -48.5 20.5t-20.5 48.5v321q0 28 20.5 48.5t48.5 20.5h160z" />
    <glyph glyph-name="uniE633" unicode="&#xe633;" 
d="M578 703h438v-63h-438v63zM578 514h438v-63h-438v63zM578 138h438v-63h-438v63zM578 -51h438v-63h-438v63zM449 358h-438v437h438v-437zM386 733h-313v-313h313v313zM449 -206h-438v438h438v-438zM386 170h-313v-313h313v313z" />
    <glyph glyph-name="uniE634" unicode="&#xe634;" 
d="M335 -196q-30 0 -51 21t-21 51t21 51t51 21t51 -21t21 -51t-21 -51t-51 -21zM829.5 -196q-29.5 0 -50.5 21t-21 51t21 51t50.5 21t50.5 -21t21 -51t-21 -51t-50.5 -21zM326 -19q-39 0 -68.5 27t-34.5 66l-60 421l-34 198q-2 12 -11.5 21t-20.5 9h-45q-15 0 -26 10.5
t-11 25.5t11 26t26 11h45q39 0 69 -27t35 -66l34 -196l60 -424q2 -12 11 -20.5t20 -8.5h574q15 0 25.5 -10.5t10.5 -26t-10.5 -26t-25.5 -10.5h-574zM370 122q-14 0 -24.5 10t-11.5 24q-1 15 8.5 26.5t24.5 12.5l480 35q12 1 21.5 9t11.5 20l55 318q3 20 -8 32q-7 8 -16 8
h-612q-15 0 -25.5 10.5t-10.5 25.5t10.5 26t25.5 11h612q42 0 70 -32q33 -37 27 -91l-56 -318q-5 -38 -34.5 -64.5t-68.5 -27.5l-476 -35h-3z" />
    <glyph glyph-name="uniE635" unicode="&#xe635;" 
d="M26 382h970v-112h-970v112z" />
    <glyph glyph-name="uniE636" unicode="&#xe636;" horiz-adv-x="1025" 
d="M26 360q-3 0 -7.5 0.5t-11.5 7t-7 18.5q0 10 7 16.5t11.5 7.5t7.5 1h973q3 0 7 -0.5t11 -6t7 -15.5q0 -12 -6 -19t-13 -9l-6 -1h-973z" />
    <glyph glyph-name="uniE637" unicode="&#xe637;" 
d="M896 492h-128v9q0 103 -72 175t-175 72h-16q-103 0 -176 -72t-73 -175v-9h-128l-64 -640h896zM320 501q0 76 54.5 129.5t130.5 53.5h15h1q76 0 129.5 -53.5t53.5 -129.5v-9h-384v9zM136 -84l49 512h71v-73q-32 -18 -32 -55q0 -27 18.5 -45.5t45.5 -18.5t45.5 18.5
t18.5 45.5q0 37 -32 55v73h384v-73q-32 -18 -32 -55q0 -27 18.5 -45.5t45.5 -18.5t45.5 18.5t18.5 45.5q0 37 -32 55v73h71l50 -512h-753z" />
    <glyph glyph-name="uniE638" unicode="&#xe638;" 
d="M224 -212q-32 0 -56 21t-24 64v353h-74q-21 0 -40 24t-19 56v9l472 489q8 8 23 8q17 0 25 -8q1 -1 107 -109t230.5 -234.5t137.5 -140.5l7 -7v-9q0 -32 -11 -50q-15 -26 -46 -26h-72l-1 -358v-3q-4 -18 -18 -38q-27 -41 -72 -41h-175v23q1 318 0 336q0 5 -3.5 12t-7.5 7
h-189q-4 0 -8.5 -5.5t-4.5 -12.5v-360h-175h-6zM73 272h117v-399q0 -39 34 -39h2h2h1h130v314q0 26 17.5 45t41.5 19h189q28 0 45 -26q12 -18 12 -37q1 -22 0 -315h128q32 0 45 42l1 398h117q5 0 7 3q4 6 4 18q-30 31 -235 239.5t-224 228.5l-450 -465q3 -18 16 -26z" />
    <glyph glyph-name="uniE639" unicode="&#xe639;" 
d="M865 113q-27 81 -84 137q-47 48 -114 75q-62 26 -127 30v44v4q57 9 95 53t38 102q0 65 -47 111t-113.5 46t-114 -46t-47.5 -111q0 -58 38 -101.5t94 -53.5v-4v-44q-65 -4 -128 -30q-66 -27 -114 -75q-57 -56 -83 -137q-41 -8 -67.5 -40t-26.5 -73q0 -48 34.5 -81.5
t83.5 -33.5t83.5 33.5t34.5 81.5q0 38 -23.5 68.5t-59.5 41.5q44 115 159 163q51 21 107 26v-187q-39 -9 -64 -40.5t-25 -71.5q0 -48 34.5 -81.5t83 -33.5t83 33.5t34.5 81.5q0 40 -25 71.5t-64 40.5v187q54 -4 105 -25q116 -48 161 -164q-36 -11 -59 -41.5t-23 -68.5
q0 -48 34.5 -81.5t83.5 -33.5t83.5 33.5t34.5 81.5q0 42 -27 73.5t-68 39.5zM243 0q0 -24 -18 -41.5t-43 -17.5t-42.5 17.5t-17.5 42t17.5 42t42.5 17.5t43 -17.5t18 -42.5zM409 558q0 42 30 71.5t73 29.5t73.5 -29.5t30.5 -71.5t-30.5 -72t-73.5 -30t-73 30t-30 72zM572 0
q0 -24 -17.5 -41.5t-43 -17.5t-43 17.5t-17.5 42t17.5 42t43 17.5t43 -17.5t17.5 -42.5zM842 -59q-25 0 -43 17.5t-18 42t18 42t43 17.5t42.5 -17.5t17.5 -42t-17.5 -42t-42.5 -17.5zM842 -59z" />
    <glyph glyph-name="uniE63A" unicode="&#xe63a;" 
d="M926 -113q-6 87 -47 164t-110 131l-5 4q-8 5 -18 5q-33 0 -33 -27q0 -16 12 -26l5 -3q116 -83 129 -248v-2v-2q0 -14 9.5 -24t23.5 -10t23.5 9t10.5 23v6zM818 449q0 125 -89.5 213.5t-216.5 88.5t-216.5 -88.5t-89.5 -213.5q0 -67 28.5 -127.5t80.5 -103.5
q-93 -50 -151.5 -139.5t-65.5 -195.5v-6v0v-1q0 -12 8 -20.5t20 -8.5t20.5 8.5t8.5 20.5v1l1 5q7 100 66 181.5t149 117.5q74 -34 141 -34q69 0 133 30l31 18l25 16q56 44 86.5 106t30.5 132zM512 207q-101 0 -172.5 71t-71.5 171t71.5 170.5t172.5 70.5t172.5 -70.5
t71.5 -170.5t-71.5 -171t-172.5 -71zM512 207z" />
    <glyph glyph-name="uniE63B" unicode="&#xe63b;" 
d="M822 536h-83q-27 84 -88 132t-139 48t-139 -48t-88 -132h-83q-35 0 -60 -25.5t-25 -60.5v-480q0 -36 25 -61.5t60 -25.5h620q34 0 58.5 23.5t26.5 57.5v1v2v3v23v457q0 35 -25 60.5t-60 25.5zM512 653q55 0 98 -30.5t66 -86.5h-328q23 56 66 86.5t98 30.5zM818 -61h-612
q-14 0 -24 10.5t-10 24.5v471q0 15 10 25t24 10h66q-5 -29 -5 -58q0 -22 3 -46q-25 -17 -25 -47q0 -23 16 -39.5t38.5 -16.5t38.5 16.5t16 39.5q0 30 -25 47q-3 24 -3 46q0 29 5 58h362q5 -29 5 -58q0 -22 -3 -47q-25 -16 -25 -46q0 -23 16 -39.5t38.5 -16.5t38.5 16.5
t16 39.5q0 31 -25 47q2 23 2 46q0 29 -4 58h66q14 0 24 -10t10 -25v-471q0 -15 -10 -25t-24 -10z" />
  </font>
</defs>
</svg>
